<svg id="Layer_1" data-name="Layer 1" xmlns="http://www.w3.org/2000/svg" viewBox="0 0 1180.2 1697.62"><defs><style>.cls-1{fill:#010101;}.cls-2{fill:#ef5552;}.cls-3{fill:none;stroke:#ef5552;stroke-linecap:round;stroke-miterlimit:10;stroke-width:12.62px;}</style></defs><title>nz_wellington</title><path class="cls-1" d="M449.14,1679.29c-3.77,8.45-9.57,11.91-18.79,11.59-3-.1-5.94,3.17-9.05,4.62-2.71,1.27-5.62,3.15-8.39,3.06-7.72-.24-13.91,1.11-16.74,9.46-1.27,3.8-10.83,6.54-13.31,3.45-1.39-1.71.06-6,.67-8.94.42-2.12,2.27-4.08,2.3-6.12.24-13.13.5-13.61,12.69-16.82,5.61-15.64,4.19-30.25-3.53-44.89,10.26-3.36,19.23-3.83,28.19-.18,1.42.59,3.53,2.36,3.42,3.38-1.18,10.38,6.95,14.09,13.88,19.15l-7.2,5.39c4.46,2.16,7.67,4.1,11.12,5.31C451.93,1670.36,452.35,1672.14,449.14,1679.29Z" transform="translate(-273.9 -15.19)"/><path class="cls-1" d="M1012.35,894.89c-.65,3.34-1.57,7.22-3.8,9.54-2.68,2.78-6.95,4-10.25,6.28-1.63,1.13-3.45,3.09-3.74,4.9-2.07,13-1.95,13-14.77,8.19-1.33,4.86-3.2,9.6-3.71,14.49-.24,2.41,1.47,5.54,3.21,7.53,4.42,5.07,10,9.07,7,17.5-.61,1.68,3.24,5.56,5.71,7.6,9.11,7.57,8.34,18.29-2.34,24.15-10.17,5.57-16.16,13.62-17.8,25.28a14.1,14.1,0,0,1-5.12,8.43c-11.94,8.8-21.31,19.26-24.72,34.7l-11.78-1c-.73,1.79-1.36,3.63-2.19,5.37-5.51,11.54-10.65,23.3-16.79,34.49-3.46,6.27-8.24,11.2-8,19.5.1,4.3-4.09,10-7.95,12.89-8.37,6.37-17.67,11.58-26.8,16.91-20.47,11.94-24.71,20.39-21.56,44.08,2.32,17.53,8,23.35,25.53,26.33,10.31,1.76,15.82,8.65,14.73,18.44-1,9.08-8.33,14.22-17.26,12.07a4.91,4.91,0,0,1-2.13-.73c-10.15-8.8-20.7-6.8-31.62-1.59-2.22,1.06-5.14.65-7.7.91v-18.62q-1.31-.57-2.58-1.17c-4.64,5-8.46,11.67-14.18,14.55-5.54,2.79-13,1.7-20,2.35-.51,2.84-.16,6.4-1.74,8.61-2.69,3.8-6.17,9-10.05,9.68-12.66,2.3-19.39,11.65-27.21,19.9a19.94,19.94,0,0,0-3.37,5.89c-2.82,6.71-7.13,11.07-14.84,12.09-3.59.48-7,2.6-10.39,4.31-7.08,3.6-11.24,8.49-12.3,17.35s-5.59,17.37-8.6,26c-.26.71-.82,1.37-.84,2.07-.37,13.81-4.2,26.69-10.2,39-4.24,8.7-8.55,17.38-12.75,26.1a20.84,20.84,0,0,0-2.18,6.1,49.87,49.87,0,0,0-.33,10.57c1.26,13.43-.73,25-13.82,32.75-4,2.39-6.65,8.23-8.38,13-3.07,8.63-.93,11.08,7.71,13.65,2.92.87,7.66,4.92,7.3,5.83-2,4.92-5.06,9.45-8.19,13.82-.87,1.2-3.15,1.41-4.8,2A57.58,57.58,0,0,0,623.1,1548c-6.6,14.39-17.06,23.28-32.14,27.46a8.63,8.63,0,0,0-5.12,5.1c-7.87,30.46-30.89,43.68-58.91,43.2-16.74-.29-33.44-3.88-50.14-6-2-.24-3.89-.79-6-1.23-1,1.47-1.74,2.74-2.56,4-3.63,5.43-6.87,5.87-10.14.13-4.08-7.17-7-15-10.31-22.62-1.2-2.74-2.08-5.6-3.27-8.93-5.64,1.44-10.87,3-16.22,4.07-17.41,3.39-26.42-1.09-34.28-16.79-3.25-6.49-15.44-8.08-19.59-2.42-3.25,4.45-6,4-8.6-.38-1.16-1.94-2.07-4-3.6-7-7.25,7.84-14.85,12.73-24.89,9.28a12.94,12.94,0,0,0-1.24,1.62c-1.6,3.15-3.18,6.3-4.77,9.46-2.68-2.45-5.49-4.77-8-7.4a39.38,39.38,0,0,1-3.73-5.41,18.35,18.35,0,0,0-2.62.59c-15.23,6.12-19.9,2.83-19.07-13.41.42-8.4.42-8.4-6.33-14.7a5,5,0,0,0-1.45.14c-3.79,1.34-5.91,8.31-11.37,3.81-3.65-3-3.86-16.79-.29-20.66,2.66-2.9,6.12-5.05,9.84-8-2.45-1.5-4.68-2.91-7-4.24-8.41-4.9-9.21-7.42-4.92-16.35.86-1.82,1.55-4.16,3.07-5.13,9.54-6.15,12.49-15.79,15.74-25.92,2.11-6.59,6-13.28,14.33-15.43,1.8-.47,2.92-4.21,4-6.6,2.27-4.83,4-10,6.55-14.62,4.17-7.44,8.77-14.64,13.4-21.82a38.33,38.33,0,0,1,5.35-5.92c6-6,13.2-11.17,17.77-18.08,18.83-28.44,37.86-56.69,63.36-79.75,15.31-13.85,31.94-25.47,53.43-27.8,2.34-.26,4.75-2.57,6.6-4.46,19.66-20.09,40-39.43,66.39-50.45,7.37-3.06,11.9-7.1,15.29-14.64,8.08-18,22.49-31.47,36.32-45.1a314.88,314.88,0,0,1,26-23.07c3.1-2.47,8.35-4.32,12-3.55,8.58,1.82,14.49-1.57,20.41-6.76,17.8-15.64,29.65-35.4,40.07-56.34,5.63-11.31,7.77-23.09,9-35.5,1-9.61,4.68-18.94,6.88-28.46a37,37,0,0,0,.65-9.47c-.2-5.29-.15-10.06,6.21-12.2,1.53-.5,2.89-3,3.37-4.89,3.68-14.14,6.07-15.88,20.23-14.91a7.58,7.58,0,0,0,5.72-2.36c11.39-15.34,23.53-30.25,33.19-46.63,4-6.69,2.9-16.63,3.24-25.13.33-8.8-1.24-17.72-.41-26.44a26.91,26.91,0,0,1,6.42-14.52c10-11,20.6-21.48,31.41-31.71,12.92-12.24,29-15.39,46.15-14.31,1.15.07,3.13,2.15,3,3.1-.19,1.7-1.49,4.44-2.65,4.63a42.45,42.45,0,0,1-11.86.22c-7.4-.94-15.8,5.63-13.83,12.56a46.23,46.23,0,0,0,10.32,18.59c2.56,2.7,9.16,2.52,13.75,2,5.66-.62,11.38-3.92,16.08,1.72,3.27,4,2,14.75-.82,20.26a19,19,0,0,0-1.73,11c1.32,8.17,3.94,16.12,5.54,24.27,1.38,7,10.13,11.55,13.37,6,7.19-12.17,23.71-13.46,28.46-27.17,9.22,3.46,13.28,2,17-6.6,2.38-5.52,3.57-11.53,5.92-17a164.77,164.77,0,0,1,9.36-18.64c.75-1.3,4.11-2.1,5.73-1.54,1.23.41,1.88,3.3,2.26,5.19,1.39,6.81,2.59,13.66,3.83,20.5a64,64,0,0,1,1.12,7.24c.23,4.16,1.85,7,6.37,6.58,7.62-.62,10.72,4.06,12.69,10.27.38,1.19.44,2.6,1.12,3.58,1.23,1.75,2.76,4.42,4.29,4.52s3.34-2.38,4.9-3.88c2-1.91,3.86-4,5.8-5.95C1010.07,892.19,1012.55,893.8,1012.35,894.89Z" transform="translate(-273.9 -15.19)"/><path class="cls-1" d="M1430.59,499.15c-.35,11.66,1.54,23.14-4.06,34.64-2.56,5.29.17,13.11.47,19.79.1,2.59,1.21,5.84.06,7.66-8.12,13-15.28,27.07-33.46,28.75-2.69.26-5.81,3.94-7.39,6.77-6.52,11.78-8.64,24.57-7.72,38a142.61,142.61,0,0,1,.36,19.6c-.16,2.5-2.72,4.85-4.17,7.26-2-1.7-4.88-3-5.83-5.2a98.41,98.41,0,0,1-6.09-17.8c-1.21-5.38-3.8-7.66-9.22-7.89-15.34-.64-30.66-1.59-46-2.36a6.63,6.63,0,0,0-2.93.48c-18.74,8.28-38.34,27.44-34.29,52.31,1,6.33,6.3,12,9.54,17.94.88,1.61,2.3,3.51,2,5-3.72,21.75-6.9,43.68-16.41,63.95-6.32,13.47-15.7,24.31-26.78,34.26-18.4,16.53-34.78,35-45,58-12.65,28.45-31.24,52.19-55.11,72-8.33,6.92-16.31,14.26-24.36,21.5s-13.79,6.16-17.7-4c-1.71-4.43-2.57-9.2-3.56-13.88-2.07-9.92-7.67-13.13-17-9.23a69,69,0,0,0-9.24,5.13c-11,6.66-24.54,1.21-27-11.37s-.35-24.15,10.73-32.46A63.51,63.51,0,0,0,1072,860.52c3.94-9.55,11.66-17.49,17.25-26.43,2-3.11,2.81-7,3.65-10.66,1.69-7.5,3-15.1,4.54-22.62.35-1.68,1.77-3.26,1.77-4.89,0-15.58.73-31.14-8.66-45.15-6.77-10.11-15.82-16.56-27.27-18.75-23.83-4.56-44.28-14.8-61-32.46-1.85-2-5.1-3.09-7.87-3.56-19.28-3.29-33.2-12.72-38.76-32.37a20.42,20.42,0,0,0-2.68-5.34c-4.12-6.41-2.83-11.72,2.62-16.75,13.9-12.79,28.86-23.68,47.57-28.34a13,13,0,0,0,4-1.85c7.54-5.24,15-10.57,23.83-16.76a22.18,22.18,0,0,0-.32-3.68c-2.21-12.24-.35-16.29,10.65-22.8,3.45-2,5.69-12.21,3.57-16.2-5.23-9.79-4.17-18.75,3.19-27.46,1-1.1,2.46-2.57,2.3-3.66-1.77-12,6.18-18.9,13.86-26.3-6.38-15.43-2.46-29.95,4.11-44.36,1.06-2.33.84-6.48-.6-8.52a87.41,87.41,0,0,1-15.91-41.17,18.79,18.79,0,0,0-2.5-7c-9.77-16.83-7.86-21.8,10.72-27.19.16-7.95-3-12.41-9.54-13.78-8.83-1.86-7.51,5.91-10.73,12.48-4.33-5.89-8.69-10.34-11.28-15.66-7.86-16.06-15-32.5-22.53-48.73-1.88-4-4.39-7.78-6.65-11.72,5.45-1.56,5.45-1.57,10.69,5.76l8.43,11.8c4.74-9.78,18.69-1.19,22.87-13.79-5.39-3.69-11.22-7.43-16.79-11.55s-11.13-8.45-16.37-13.05c-4.56-4-7.43-1.27-10.72,1.68-2.3,2-4.9,3.74-7.36,5.6-2-2.72-5.11-5.21-5.75-8.22-2-9.4-5.59-17.35-13.9-23a14.63,14.63,0,0,1-5.65-7.84c-2.21-9-9.09-14.11-15.2-20a128.72,128.72,0,0,1-32.15-50.63,24.48,24.48,0,0,0-10.92-13.69,154.06,154.06,0,0,1-14.9-10.35c-13.18-10.3-12.5-20.85,1.38-29.52a10.68,10.68,0,0,0,4.18-6.44c2-10.17-2.35-19.19-11.22-25-2.9-1.93-6.25-4-7.92-6.88C870.62,61,857.5,52.25,853,37.33c-1-3.51-6.2-5.63-8.93-8.85-1.79-2.12-3.56-5.12-3.42-7.62.06-1.29,4.22-3.13,6.68-3.38,5.22-.53,10.55-.18,15.83-.21,2.5,0,5.56.87,7.39-.25,8.07-4.93,9.4,1.13,8.68,6.07-2.53,17.19,1.63,31.34,14,44.1,5,5.18,6.22,14,9.64,20.88,1.06,2.15,3.73,3.51,5.65,5.23.56-2.06,1.53-4.08,1.62-6.14.24-5.8-.24-11.63.35-17.37.2-1.86,2.85-3.47,4.37-5.18,1.59,1.55,4.2,2.9,4.58,4.7,1,4.65.34,9.66,1.56,14.2.66,2.56,3.7,4.48,5.69,6.69,1.56-1.92,3.95-3.62,4.52-5.8,2.64-9.82,3.15-10.23,10.39-3.1,4.75,4.68,8.84,10,14.55,16.59,1-1.29,3.21-4,5.89-7.43,6.1,1.38,12.63,4.13,14.31,10.88,2.3,9.19,7.63,12.45,17.15,11.93.29,4.7.54,9.09.8,13.46,4.91,2.06,7.9,1.7,10.25-3.75,1.68-3.89,5.62-6.8,9.74-9.6-2.79,7.63-1.44,13.26,3.84,18.82,2.18,2.31,1.94,6.81,3.08,10.23,2.72,8.28,5.45,16.56,8.53,24.71.62,1.65,2.79,2.8,4.38,4,2.65,2,7.33,3.55,7.78,6,1.59,8.31,3.1,17.1,1.8,25.28-.57,3.56-8,6-13.7,9.92V224.7c8.56.2,9.42,6.51,9.78,13.11a27.83,27.83,0,0,1-8,21.32c-6.66,7.1-5.94,14.15,1.91,20.07,2,1.53,4.14,2.9,6,4.55,6.44,5.57,13.4,8.88,22.35,9.17a65.23,65.23,0,0,1,21.22,4.84c15.1,5.95,22,16.82,21.2,33.05-.44,8.82,4,14.86,9.32,20.59,3.87,4.15,8.66,3.26,10.47-1.46,3.75-9.8,6.42-20,9.11-30.19.36-1.35-1.42-3.56-2.63-5-14-16.63-20.88-36.1-22.53-57.46-.27-3.5,2.34-7.22,3.62-10.85,3.65,3.11,9.46,5.63,10.52,9.46,2.32,8.48,4.07,16.55,12.23,21.59,1.21.75,1.38,3.12,2.17,4.66,5.92,11.89,11.94,23.69,17.79,35.62,2.16,4.41,4.79,8.88,5.67,13.6,2.93,15.79,7.83,30.72,16.1,44.57a15.71,15.71,0,0,1,2.19,8.43c-1.09,17.87,5.21,32.54,18.35,44.5,2,1.79,3.59,3.9,5.39,5.87l-1.15,2.2c-2-.86-4.41-1.32-6.07-2.65-2.76-2.17-4.78-5.33-7.68-7.24-1.59-1-4.31-.39-6.52-.51.16,2-.46,4.81.62,5.83,5.3,5,10.45,10.79,16.83,13.74,4.3,2,10.57-.3,16-.66.09-.85.16-1.7.25-2.53,4,3.37,7.79,6.93,11.89,10.11,17.44,13.52,37.32,21.85,58.56,27.25a27.81,27.81,0,0,1,7.69,2.93c15.62,9.59,42.06,6.84,55.74-6.05a4.84,4.84,0,0,0,1.7-3c-.45-9.82,7.18-12.22,13.9-15.71a103.92,103.92,0,0,0,11.17-7.24c6.36-4.47,12.23-9.84,19-13.38,9.78-5.08,20.18-4.18,28.19,3.45,7.17,6.84,15.45,9.94,24.61,12,2.14.47,4.17,1.37,7,2.32-7,10.76-13.9,20.7-20,31.05A27.28,27.28,0,0,0,1430.59,499.15Z" transform="translate(-273.9 -15.19)"/><circle class="cls-2" cx="777.97" cy="846.52" r="24.46"/><line class="cls-3" x1="777.97" y1="846.52" x2="777.97" y2="894.53"/></svg>